<?xml version="1.0" encoding="utf-8"?>
<!-- Generator: Adobe Illustrator 22.1.0, SVG Export Plug-In . SVG Version: 6.00 Build 0)  -->
<svg version="1.1" id="Layer_1" xmlns="http://www.w3.org/2000/svg" xmlns:xlink="http://www.w3.org/1999/xlink" x="0px" y="0px"
	 viewBox="0 0 200 200" style="enable-background:new 0 0 200 200;" xml:space="preserve">
<style type="text/css">
	.st0{fill:none;stroke:#FFFFFF;stroke-width:3.6;stroke-miterlimit:10;}
	.st1{fill:none;stroke:#FFFFFF;stroke-width:2.232;stroke-miterlimit:10;}
	.st2{fill:#FFFFFF;}
</style>
<rect x="3.7" y="3.7" class="st0" width="24.1" height="96.3"/>
<rect x="27.8" y="3.7" class="st0" width="24.1" height="96.3"/>
<rect x="51.8" y="3.7" class="st0" width="24.1" height="96.3"/>
<rect x="75.9" y="3.7" class="st0" width="24.1" height="96.3"/>
<rect x="172.2" y="3.7" class="st0" width="24.1" height="96.3"/>
<rect x="148.2" y="3.7" class="st0" width="24.1" height="96.3"/>
<rect x="124.1" y="3.7" class="st0" width="24.1" height="96.3"/>
<rect x="100" y="3.7" class="st0" width="24.1" height="96.3"/>
<rect x="172.2" y="100" class="st0" width="24.1" height="96.3"/>
<rect x="148.2" y="100" class="st0" width="24.1" height="96.3"/>
<rect x="124.1" y="100" class="st0" width="24.1" height="96.3"/>
<rect x="100" y="100" class="st0" width="24.1" height="96.3"/>
<rect x="3.7" y="100" class="st0" width="24.1" height="96.3"/>
<rect x="27.8" y="100" class="st0" width="24.1" height="96.3"/>
<rect x="51.8" y="100" class="st0" width="24.1" height="96.3"/>
<rect x="75.9" y="100" class="st0" width="24.1" height="96.3"/>
<line class="st1" x1="63.9" y1="24.8" x2="63.9" y2="83.1"/>
<polygon class="st2" points="60.9,25.7 63.9,20.6 66.9,25.7 "/>
<line class="st1" x1="88" y1="24.8" x2="88" y2="83.1"/>
<polygon class="st2" points="85,25.7 88,20.6 90.9,25.7 "/>
<line class="st1" x1="112" y1="121.2" x2="112" y2="179.4"/>
<polygon class="st2" points="109.1,122.1 112,116.9 115,122.1 "/>
<line class="st1" x1="136.1" y1="121.2" x2="136.1" y2="179.4"/>
<polygon class="st2" points="133.1,122.1 136.1,116.9 139.1,122.1 "/>
<line class="st1" x1="160.2" y1="121.2" x2="160.2" y2="179.4"/>
<polygon class="st2" points="157.2,122.1 160.2,116.9 163.2,122.1 "/>
<line class="st1" x1="184.3" y1="121.2" x2="184.3" y2="179.4"/>
<polygon class="st2" points="181.3,122.1 184.3,116.9 187.3,122.1 "/>
<line class="st1" x1="15.7" y1="121.2" x2="15.7" y2="179.4"/>
<polygon class="st2" points="12.7,122.1 15.7,116.9 18.7,122.1 "/>
<line class="st1" x1="39.8" y1="121.2" x2="39.8" y2="179.4"/>
<polygon class="st2" points="36.8,122.1 39.8,116.9 42.8,122.1 "/>
<line class="st1" x1="63.9" y1="121.2" x2="63.9" y2="179.4"/>
<polygon class="st2" points="60.9,122.1 63.9,116.9 66.9,122.1 "/>
<line class="st1" x1="88" y1="121.2" x2="88" y2="179.4"/>
<polygon class="st2" points="85,122.1 88,116.9 90.9,122.1 "/>
<line class="st1" x1="112" y1="24.8" x2="112" y2="83.1"/>
<polygon class="st2" points="109.1,25.7 112,20.6 115,25.7 "/>
<line class="st1" x1="136.1" y1="24.8" x2="136.1" y2="83.1"/>
<polygon class="st2" points="133.1,25.7 136.1,20.6 139.1,25.7 "/>
<line class="st1" x1="160.2" y1="24.8" x2="160.2" y2="83.1"/>
<polygon class="st2" points="157.2,25.7 160.2,20.6 163.2,25.7 "/>
<line class="st1" x1="184.3" y1="24.8" x2="184.3" y2="83.1"/>
<polygon class="st2" points="181.3,25.7 184.3,20.6 187.3,25.7 "/>
<line class="st1" x1="15.7" y1="24.8" x2="15.7" y2="83.1"/>
<polygon class="st2" points="12.7,25.7 15.7,20.6 18.7,25.7 "/>
<line class="st1" x1="39.8" y1="24.8" x2="39.8" y2="83.1"/>
<polygon class="st2" points="36.8,25.7 39.8,20.6 42.8,25.7 "/>
</svg>
