<?xml version="1.0" encoding="utf-8"?>
<!-- Generator: Adobe Illustrator 22.1.0, SVG Export Plug-In . SVG Version: 6.00 Build 0)  -->
<svg version="1.1" id="Layer_1" xmlns="http://www.w3.org/2000/svg" xmlns:xlink="http://www.w3.org/1999/xlink" x="0px" y="0px"
	 viewBox="0 0 200 200" style="enable-background:new 0 0 200 200;" xml:space="preserve">
<style type="text/css">
	.st0{fill:none;stroke:#FFFFFF;stroke-width:3.6;stroke-miterlimit:10;}
	.st1{fill:none;stroke:#FFFFFF;stroke-width:2.232;stroke-miterlimit:10;}
	.st2{fill:#FFFFFF;}
</style>
<rect x="172.2" y="3.7" class="st0" width="24.1" height="96.3"/>
<line class="st1" x1="184.3" y1="24.8" x2="184.3" y2="83.1"/>
<polygon class="st2" points="181.3,25.7 184.3,20.6 187.2,25.7 "/>
<rect x="75.9" y="3.7" class="st0" width="96.3" height="24.1"/>
<line class="st1" x1="151" y1="15.7" x2="92.8" y2="15.7"/>
<polygon class="st2" points="150.2,12.7 155.3,15.7 150.2,18.7 "/>
<rect x="148.1" y="27.7" class="st0" width="24.1" height="96.3"/>
<line class="st1" x1="160.2" y1="48.9" x2="160.2" y2="107.1"/>
<polygon class="st2" points="157.2,49.8 160.2,44.6 163.2,49.8 "/>
<rect x="51.9" y="27.7" class="st0" width="96.3" height="24.1"/>
<line class="st1" x1="127" y1="39.8" x2="68.7" y2="39.8"/>
<polygon class="st2" points="126.1,36.8 131.3,39.8 126.1,42.8 "/>
<rect x="124.1" y="51.8" class="st0" width="24.1" height="96.3"/>
<line class="st1" x1="136.1" y1="73" x2="136.1" y2="131.2"/>
<polygon class="st2" points="133.1,73.9 136.1,68.7 139.1,73.9 "/>
<rect x="27.8" y="51.8" class="st0" width="96.3" height="24.1"/>
<line class="st1" x1="102.9" y1="63.8" x2="44.7" y2="63.8"/>
<polygon class="st2" points="102,60.9 107.2,63.8 102,66.8 "/>
<rect x="100" y="75.9" class="st0" width="24.1" height="96.3"/>
<line class="st1" x1="112" y1="97.1" x2="112" y2="155.3"/>
<polygon class="st2" points="109.1,97.9 112,92.8 115,97.9 "/>
<rect x="3.7" y="75.9" class="st0" width="96.3" height="24.1"/>
<line class="st1" x1="78.8" y1="87.9" x2="20.6" y2="87.9"/>
<polygon class="st2" points="78,84.9 83.1,87.9 78,90.9 "/>
<rect x="75.9" y="100" class="st0" width="24.1" height="96.3"/>
<line class="st1" x1="88" y1="121.2" x2="88" y2="179.4"/>
<polygon class="st2" points="85,122.1 88,116.9 91,122.1 "/>
</svg>
