<?xml version="1.0" encoding="utf-8"?>
<!-- Generator: Adobe Illustrator 22.1.0, SVG Export Plug-In . SVG Version: 6.00 Build 0)  -->
<svg version="1.1" id="Layer_1" xmlns="http://www.w3.org/2000/svg" xmlns:xlink="http://www.w3.org/1999/xlink" x="0px" y="0px"
	 viewBox="0 0 200 200" style="enable-background:new 0 0 200 200;" xml:space="preserve">
<style type="text/css">
	.st0{fill:none;stroke:#FFFFFF;stroke-width:3.6;stroke-miterlimit:10;}
	.st1{fill:none;stroke:#FFFFFF;stroke-width:2.232;stroke-miterlimit:10;}
	.st2{fill:#FFFFFF;}
</style>
<rect x="13.6" y="7.2" class="st0" width="21.6" height="86.4"/>
<rect x="35.2" y="50.4" class="st0" width="21.6" height="86.4"/>
<rect x="56.8" y="9.8" class="st0" width="21.6" height="86.4"/>
<rect x="78.4" y="23.7" class="st0" width="21.6" height="86.4"/>
<line class="st1" x1="67.6" y1="28.7" x2="67.6" y2="81"/>
<polygon class="st2" points="64.9,29.5 67.6,24.9 70.3,29.5 "/>
<line class="st1" x1="89.2" y1="42.7" x2="89.2" y2="95"/>
<polygon class="st2" points="86.5,43.5 89.2,38.9 91.9,43.5 "/>
<line class="st1" x1="24.4" y1="26.2" x2="24.4" y2="78.5"/>
<polygon class="st2" points="21.7,27 24.4,22.4 27.1,27 "/>
<line class="st1" x1="46" y1="69.4" x2="46" y2="121.7"/>
<polygon class="st2" points="43.3,70.2 46,65.6 48.7,70.2 "/>
<rect x="100" y="3.6" class="st0" width="21.6" height="86.4"/>
<rect x="121.6" y="50.4" class="st0" width="21.6" height="86.4"/>
<rect x="143.2" y="13.5" class="st0" width="21.6" height="86.4"/>
<line class="st1" x1="154" y1="32.5" x2="154" y2="84.8"/>
<polygon class="st2" points="151.3,33.3 154,28.7 156.7,33.3 "/>
<line class="st1" x1="110.8" y1="22.6" x2="110.8" y2="74.9"/>
<polygon class="st2" points="108.1,23.4 110.8,18.8 113.5,23.4 "/>
<line class="st1" x1="132.4" y1="69.4" x2="132.4" y2="121.7"/>
<polygon class="st2" points="129.7,70.2 132.4,65.6 135.1,70.2 "/>
<rect x="13.6" y="93.6" class="st0" width="21.6" height="86.4"/>
<rect x="56.8" y="96.2" class="st0" width="21.6" height="86.4"/>
<line class="st1" x1="67.6" y1="115.1" x2="67.6" y2="167.4"/>
<polygon class="st2" points="64.9,115.9 67.6,111.3 70.3,115.9 "/>
<line class="st1" x1="24.4" y1="112.6" x2="24.4" y2="164.9"/>
<polygon class="st2" points="21.7,113.4 24.4,108.8 27.1,113.4 "/>
<rect x="100" y="90" class="st0" width="21.6" height="86.4"/>
<rect x="143.2" y="99.9" class="st0" width="21.6" height="86.4"/>
<line class="st1" x1="154" y1="118.9" x2="154" y2="171.1"/>
<polygon class="st2" points="151.3,119.7 154,115.1 156.7,119.7 "/>
<line class="st1" x1="110.8" y1="109" x2="110.8" y2="161.3"/>
<polygon class="st2" points="108.1,109.8 110.8,105.2 113.5,109.8 "/>
<rect x="78.4" y="110" class="st0" width="21.6" height="86.4"/>
<line class="st1" x1="89.2" y1="129" x2="89.2" y2="181.2"/>
<polygon class="st2" points="86.5,129.7 89.2,125.1 91.9,129.7 "/>
<rect x="164.8" y="22.7" class="st0" width="21.6" height="86.4"/>
<line class="st1" x1="175.6" y1="41.7" x2="175.6" y2="93.9"/>
<polygon class="st2" points="172.9,42.5 175.6,37.8 178.3,42.5 "/>
<rect x="164.8" y="108.9" class="st0" width="21.6" height="86.4"/>
<line class="st1" x1="175.6" y1="127.9" x2="175.6" y2="180.1"/>
<polygon class="st2" points="172.9,128.7 175.6,124 178.3,128.7 "/>
</svg>
